<svg aria-hidden="true" data-prefix="fas" data-icon="hand-point-right" class="svg-inline--fa fa-hand-point-right fa-w-16" xmlns="http://www.w3.org/2000/svg" viewBox="0 0 512 512">
  <path fill="currentColor" d="M512 200c0 23-21 43-45 43H367c17 18 19 50-6 71 14 23 2 53-16 63 9 49-22 71-73 71h-16c-62 0-77-31-124-39-11-1-20-11-20-23V214c0-18 11-36 28-44 29-13 96-49 108-77 8-18 21-29 40-29 34 0 58 35 44 67-3 8-8 17-14 25h149c24 0 45 20 45 44zm-416 0v192c0 13-11 24-24 24H24c-13 0-24-11-24-24V200c0-13 11-24 24-24h48c13 0 24 11 24 24zM68 368a20 20 0 1 0-40 0 20 20 0 0 0 40 0z"/>
</svg>
