<svg aria-hidden="true" data-prefix="fas" data-icon="link" class="svg-inline--fa fa-link fa-w-16" xmlns="http://www.w3.org/2000/svg" viewBox="0 0 512 512"><path fill="currentColor" d="M327 185a152 152 0 0 1 0 215l-68 68A152 152 0 0 1 44 253l38-38c9-9 26-3 27 11 1 18 4 36 10 53 2 6 0 12-4 16l-13 14a73 73 0 0 0-1 101c28 29 74 29 102 1l67-67a72 72 0 0 0-10-111 16 16 0 0 1-7-12c-1-11 3-22 11-30l22-21c5-6 14-6 20-2a152 152 0 0 1 21 17zM468 44c-60-59-156-59-215 0l-68 68c-59 59-59 155 0 215a152 152 0 0 0 21 17c6 4 15 4 20-2l22-21c8-8 12-19 11-30a16 16 0 0 0-7-12l-10-9a72 72 0 0 1 0-102l67-67c28-28 74-28 102 1 28 28 27 73-1 101l-13 14c-4 4-6 10-4 16 6 17 9 35 10 53 1 14 18 20 27 11l38-38c59-59 59-155 0-215z"/></svg>